<svg width="30" height="30" viewBox="0 0 30 30" fill="none" xmlns="http://www.w3.org/2000/svg">
<path fill-rule="evenodd" clip-rule="evenodd" d="M3.99849 0C4.13099 0 4.26724 0.07125 4.44662 0.234375C4.58849 0.363125 4.77099 0.58125 4.85349 0.71875C4.93537 0.85625 5.01974 1.12375 5.04162 1.3125C5.06974 1.555 5.05099 1.74812 4.97849 1.96875C4.92162 2.14062 4.77662 2.4075 4.65537 2.5625C4.52162 2.73312 4.43599 2.91125 4.43724 3.01562C4.43849 3.12937 4.53412 3.29312 4.72037 3.5C4.92162 3.72375 5.00162 3.86562 5.00162 4C5.00162 4.115 4.94224 4.24813 4.84849 4.34375C4.74537 4.44875 4.62724 4.49938 4.48912 4.49875C4.32287 4.49813 4.22099 4.43375 3.96662 4.17063C3.76474 3.96125 3.61287 3.73125 3.54412 3.53125C3.48537 3.35938 3.43724 3.12 3.43724 3C3.43662 2.88 3.48099 2.655 3.53474 2.5C3.58849 2.345 3.73099 2.0925 3.85037 1.9375C3.97974 1.77 4.06662 1.58687 4.06599 1.48438C4.06433 1.36979 3.96995 1.20833 3.78287 1C3.57599 0.77 3.50224 0.636875 3.50474 0.496875C3.50599 0.383125 3.56787 0.245625 3.65787 0.153125C3.75224 0.0568751 3.87912 0 3.99849 0ZM5.99849 0C6.13099 0 6.26724 0.07125 6.44662 0.234375C6.58849 0.363125 6.77099 0.58125 6.85349 0.71875C6.93537 0.85625 7.01974 1.12375 7.04162 1.3125C7.06974 1.555 7.05099 1.74812 6.97849 1.96875C6.92162 2.14062 6.77662 2.40812 6.65537 2.5625C6.52162 2.73312 6.43599 2.91125 6.43724 3.01562C6.43849 3.12937 6.53412 3.29312 6.72037 3.5C6.92162 3.72375 7.00162 3.86562 7.00162 4C7.00162 4.115 6.94224 4.24813 6.84849 4.34375C6.75099 4.4425 6.62474 4.5 6.50474 4.5C6.37224 4.5 6.23599 4.42875 6.05662 4.26562C5.91474 4.13688 5.73224 3.91875 5.64974 3.78125C5.56787 3.64375 5.48349 3.37687 5.46162 3.1875C5.43349 2.945 5.45224 2.75187 5.52474 2.53125C5.58162 2.35938 5.72662 2.0925 5.84787 1.9375C5.98162 1.76688 6.06724 1.58875 6.06599 1.48438C6.06474 1.37063 5.96912 1.20687 5.78287 1C5.57599 0.77 5.50224 0.636875 5.50474 0.496875C5.50599 0.383125 5.56787 0.245625 5.65787 0.153125C5.75224 0.0568751 5.87912 0 5.99849 0ZM8.01412 0.00125003C8.18037 0.00187503 8.28224 0.06625 8.53662 0.329375C8.73849 0.53875 8.89037 0.76875 8.95912 0.96875C9.01787 1.14062 9.06599 1.38 9.06599 1.5C9.06662 1.62 9.02224 1.84563 8.96849 2C8.91474 2.155 8.77224 2.40812 8.65287 2.5625C8.52349 2.73 8.43662 2.91313 8.43724 3.01562C8.43891 3.13021 8.53329 3.29167 8.72037 3.5C8.92162 3.72375 9.00162 3.86562 9.00162 4C9.00162 4.115 8.94224 4.24813 8.84849 4.34375C8.75099 4.4425 8.62474 4.5 8.50474 4.5C8.37224 4.5 8.23599 4.42875 8.05662 4.26562C7.91474 4.13688 7.73224 3.91875 7.64974 3.78125C7.56787 3.64375 7.48349 3.37687 7.46162 3.1875C7.43349 2.945 7.45224 2.75187 7.52474 2.53125C7.58162 2.35938 7.72662 2.0925 7.84787 1.9375C7.98162 1.76688 8.06724 1.58875 8.06599 1.48438C8.06474 1.37063 7.96912 1.20687 7.78287 1C7.57599 0.77 7.50224 0.636875 7.50474 0.496875C7.50599 0.383125 7.56787 0.245625 7.65787 0.153125C7.75829 0.0510417 7.87704 0.000416695 8.01412 0.00125003ZM6.00162 5.50187C6.15599 5.5025 6.40974 5.56 6.56412 5.63C6.71849 5.7 6.92599 5.83312 7.02537 5.92562C7.12412 6.01813 7.27162 6.23438 7.35287 6.40625C7.45849 6.63 7.50037 6.82938 7.50162 7.5L8.26724 7.51875C9.00537 7.53625 9.04724 7.545 9.43287 7.75313C9.65224 7.87188 9.90224 8.05313 9.98724 8.15625C10.0722 8.25937 10.2129 8.48438 10.2991 8.65625C10.411 8.87938 10.4666 9.11625 10.4941 9.485C10.5204 9.83562 10.5579 10.0006 10.611 10.0006C10.6541 10 10.7597 10.07 10.8454 10.1562C10.9429 10.2537 11.0016 10.3831 11.0016 10.5C11.0016 10.615 10.9422 10.7481 10.6947 11H2.50162L2.51724 12.6831C2.53162 14.2544 2.54099 14.3775 2.65787 14.535C2.72662 14.6275 2.86224 14.7631 2.95912 14.8363C3.13287 14.9669 3.17849 14.9688 6.00162 14.9688C8.76974 14.9688 8.87349 14.9644 9.03662 14.8438C9.12912 14.775 9.26474 14.6394 9.33787 14.5425C9.45724 14.3837 9.47349 14.2619 9.50162 13.3025C9.53224 12.2587 9.53599 12.2362 9.68912 12.1169C9.77537 12.0494 9.92287 11.9956 10.0172 11.9975C10.1147 11.9988 10.2572 12.0681 10.3454 12.1562C10.4985 12.3094 10.5016 12.3325 10.5022 13.2656C10.5029 13.9062 10.4747 14.3112 10.416 14.5C10.3685 14.6544 10.3116 14.8306 10.2904 14.8906C10.256 14.9875 10.2979 15 11.0641 15L11.0241 14.6406C10.9922 14.3488 11.0104 14.2225 11.1216 13.9688C11.1966 13.7969 11.3479 13.5644 11.4579 13.4525C11.5679 13.3406 11.7366 13.2137 11.8329 13.1713C11.9297 13.1288 12.0185 13.0513 12.0316 13C12.0447 12.9487 12.0741 12.7794 12.0979 12.625C12.121 12.4706 12.2204 12.1325 12.3185 11.875C12.416 11.6169 12.6341 11.2094 12.8029 10.9688C12.9716 10.7281 13.2466 10.4025 13.4147 10.245C13.5829 10.0875 13.8891 9.85063 14.0954 9.71875C14.3016 9.5875 14.5897 9.4275 14.736 9.365C14.9804 9.25937 15.0016 9.23125 15.0029 9.01562C15.0035 8.88688 15.0385 8.67188 15.081 8.53813C15.1229 8.40375 15.256 8.18125 15.3766 8.0425C15.4972 7.90375 15.736 7.72563 15.9079 7.64563C16.0885 7.5625 16.3391 7.50125 16.5016 7.50125C16.6641 7.50125 16.9147 7.5625 17.0954 7.64563C17.2672 7.72563 17.506 7.90375 17.6266 8.0425C17.7472 8.18125 17.8804 8.40375 17.9222 8.53813C17.9647 8.67188 17.9997 8.88688 18.0004 9.01562C18.0016 9.23812 18.0185 9.2575 18.3297 9.39437C18.5104 9.47375 18.7985 9.63437 18.9704 9.75062C19.1422 9.8675 19.4347 10.105 19.6204 10.2781C19.8066 10.4519 20.096 10.8044 20.2641 11.0625C20.4322 11.32 20.6272 11.6856 20.6979 11.875C20.7679 12.0644 20.8647 12.4156 20.9122 12.6562C20.9604 12.8969 21.0141 13.1006 21.0316 13.1094C21.0497 13.1181 21.1554 13.0938 21.4704 12.9856L21.2666 12.5706C21.1441 12.3219 21.046 12.0063 21.021 11.7812C20.9872 11.485 21.001 11.37 21.0841 11.2344C21.1416 11.14 21.2522 11.0469 21.4704 10.9925L21.2641 10.5744C21.1347 10.3131 21.0422 10.015 21.0179 9.78125C20.9872 9.48875 21.0016 9.36875 21.0841 9.23438C21.1416 9.14 21.2522 9.04688 21.4704 8.9925L21.2629 8.57438C21.1216 8.28938 21.0435 8.02687 21.0179 7.75C20.9822 7.37063 20.9904 7.3325 21.3085 7H26.6891L26.8454 7.15625C26.9429 7.25375 27.0016 7.38312 27.0016 7.5C27.0016 7.615 26.9422 7.74813 26.6947 8H24.411C23.1547 8 22.1266 8.01375 22.1266 8.03125C22.1266 8.04875 22.166 8.14 22.2147 8.23438C22.2635 8.32875 22.3829 8.48188 22.4804 8.57438C22.5779 8.66687 22.7841 8.8 22.9391 8.87C23.201 8.98875 23.3435 8.9975 25.0016 8.9975C26.6597 8.9975 26.8022 8.98875 27.0641 8.87C27.2191 8.8 27.4254 8.66687 27.5229 8.57438C27.6204 8.48188 27.7572 8.29375 27.8266 8.15625C27.896 8.01875 27.9685 7.76562 27.9885 7.59375C28.0122 7.38542 28.0716 7.23438 28.1666 7.14062C28.251 7.05688 28.3854 7 28.4985 7C28.6241 7 28.746 7.05875 28.8566 7.17188C29.0135 7.33313 29.0216 7.36875 28.9854 7.75C28.9597 8.02687 28.8816 8.28938 28.5329 8.9925L28.6735 9.0275C28.751 9.04688 28.8616 9.14 28.9191 9.23438C29.0016 9.36875 29.016 9.48875 28.9854 9.78125C28.961 10.015 28.8685 10.3131 28.5329 10.9925L28.6735 11.0275C28.751 11.0469 28.8616 11.14 28.9191 11.2344C29.0016 11.3687 29.016 11.4888 28.9854 11.7812C28.961 12.015 28.8685 12.3131 28.5329 12.9925L28.6735 13.0275C28.751 13.0469 28.8616 13.14 28.9191 13.2344C28.9979 13.3631 29.016 13.4925 28.991 13.75C28.9729 13.9394 28.8816 14.2625 28.7885 14.4688C28.6947 14.675 28.5791 14.8862 28.5304 14.9375C28.4529 15.0194 28.4822 15.0481 28.7685 15.1688C28.9485 15.2444 29.2147 15.42 29.361 15.5594C29.5072 15.6988 29.7041 15.96 29.9704 16.4688V21.7188L29.8141 22.0575C29.7235 22.2538 29.5266 22.5169 29.3454 22.6844C29.146 22.8688 28.9085 23.0144 28.6891 23.0875C28.4497 23.1675 28.2172 23.195 27.5016 23.1562V29.6875L27.3485 29.8438C27.1954 29.9994 27.1916 30 26.0047 30C24.8179 30 24.8135 29.9994 24.5016 29.6875V23.5625L24.111 23.7275C23.896 23.8175 23.4672 23.9356 23.1579 23.9894C22.6847 24.0719 22.5035 24.0756 22.0172 24.0125C21.6991 23.9713 21.2491 23.8681 21.0172 23.7838C20.7854 23.6994 20.5322 23.5588 20.4547 23.4713C20.3772 23.3838 20.3129 23.2494 20.3122 23.1719C20.311 23.0944 20.3741 22.9506 20.4529 22.8519C20.5772 22.695 20.6272 22.6763 20.8454 22.7019C20.9829 22.7188 21.2641 22.7969 21.4704 22.8769C21.7685 22.9919 21.9729 23.0225 22.4704 23.0256C22.826 23.0275 23.2029 22.9944 23.3454 22.9475C23.4829 22.9031 24.1004 22.6219 25.8397 21.7812L26.4054 21.7825C26.9247 21.7837 27.0035 21.8013 27.3766 21.9956C27.6341 22.1294 27.8747 22.2081 28.0329 22.2094C28.171 22.2113 28.3779 22.1575 28.4954 22.0906C28.6116 22.0238 28.7616 21.8981 28.8279 21.8125C28.8947 21.7262 28.9679 21.5081 28.991 21.3275C29.0141 21.1462 29.0185 20.9988 29.0016 20.9988C28.9847 20.9988 28.8297 21.045 28.6579 21.1019C28.4366 21.1756 28.2085 21.1975 27.8766 21.1781C27.4972 21.1556 27.3391 21.1125 27.0485 20.95C26.7929 20.8081 26.6079 20.75 26.4079 20.75C26.181 20.75 25.9179 20.8531 25.0485 21.2812C24.4554 21.5737 23.7872 21.8612 23.5641 21.92C23.3004 21.99 22.9279 22.0269 22.5016 22.0256C22.0785 22.0244 21.701 21.9844 21.4391 21.9137C21.216 21.8538 20.7091 21.655 20.3141 21.4719C19.9191 21.2887 19.4479 21.1081 19.2672 21.0694C19.0866 21.0312 18.7916 21.0006 18.611 21.0006C18.4304 21.0013 18.1072 21.0438 17.8922 21.0944C17.6772 21.1456 17.2979 21.29 17.0485 21.415C16.7991 21.54 16.4404 21.695 16.2516 21.7594C16.0629 21.8237 15.6829 21.9056 15.4079 21.9425C15.0554 21.9894 14.7604 21.9894 14.4079 21.9425C14.1329 21.9062 13.711 21.8087 13.4704 21.7256C13.2297 21.6425 12.8216 21.4769 12.5641 21.3569C12.306 21.2369 11.9479 21.1075 11.7672 21.0694C11.5866 21.0312 11.2916 21.0006 11.111 21.0006C10.9304 21.0013 10.6072 21.0438 10.3922 21.0944C10.1772 21.1456 9.79787 21.29 9.54849 21.415C9.29912 21.54 8.94099 21.695 8.75162 21.7594C8.56224 21.8237 8.18287 21.9062 7.90787 21.9425C7.54349 21.9912 7.26412 21.9894 6.87662 21.9363C6.58474 21.8956 6.14849 21.7919 5.90787 21.705C5.66724 21.6175 5.11162 21.3675 4.67349 21.1481C4.07537 20.8494 3.81037 20.7494 3.61099 20.7488C3.43162 20.7475 3.21474 20.8138 2.94474 20.9519C2.63099 21.1112 2.44662 21.1613 2.10099 21.1806C1.79974 21.1969 1.55787 21.1712 1.34537 21.1012C1.17349 21.045 1.01849 20.9988 1.00162 20.9988C0.984119 20.9988 0.989119 21.1462 1.01224 21.3275C1.03537 21.5081 1.10849 21.7262 1.17537 21.8125C1.24162 21.8988 1.39162 22.0231 1.50787 22.0894C1.62474 22.1556 1.82037 22.2119 1.94287 22.2144C2.07662 22.2169 2.37412 22.1225 2.69287 21.975C3.18662 21.7469 3.25037 21.7331 3.68974 21.7563C4.13037 21.78 4.22849 21.815 5.28349 22.3275C6.22287 22.7844 6.49037 22.8869 6.90787 22.95C7.30224 23.01 7.50662 23.0094 7.87662 22.9481C8.19537 22.8956 8.57537 22.7625 9.06412 22.5338C9.52537 22.3175 9.97349 22.1588 10.3141 22.09C10.6935 22.0138 10.9972 21.9931 11.3766 22.0194C11.6691 22.0394 12.0622 22.1019 12.2516 22.1581C12.441 22.2138 12.8979 22.3981 13.2672 22.5675C13.7247 22.7769 14.0935 22.8988 14.4235 22.9506C14.8047 23.01 15.0079 23.0094 15.3766 22.9487C15.6847 22.8975 16.0697 22.7663 16.5016 22.5644C16.8622 22.3956 17.3266 22.2088 17.5329 22.1494C17.7741 22.0794 18.1385 22.0387 18.5535 22.0356C19.1822 22.0312 19.2029 22.0356 19.3504 22.2031C19.4335 22.2975 19.5016 22.445 19.5016 22.5312C19.5016 22.6169 19.4329 22.7575 19.3485 22.8438C19.2135 22.9813 19.1416 23 18.7547 23C18.5122 23 18.1666 23.0306 17.986 23.0681C17.8054 23.105 17.3341 23.2863 16.9391 23.4694C16.4854 23.68 16.0241 23.8425 15.6891 23.91C15.3097 23.9862 15.006 24.0069 14.6266 23.9806C14.3341 23.9606 13.941 23.8981 13.7516 23.8419C13.5622 23.7862 13.1129 23.605 12.7516 23.4394C12.3904 23.2744 11.9479 23.1075 11.7672 23.0694C11.5866 23.0312 11.2916 23.0006 11.111 23.0006C10.9304 23.0013 10.6072 23.0438 10.3922 23.0944C10.1772 23.1456 9.78349 23.2969 9.51724 23.4306C9.25099 23.5644 8.82224 23.74 8.56412 23.8206C8.17724 23.9412 7.96412 23.9663 7.34537 23.9638C6.68724 23.9606 6.52849 23.9381 5.50349 23.5938L5.50162 29.6875L5.34849 29.8438C5.19537 29.9994 5.19162 30 4.00474 30C2.81787 30 2.81349 29.9994 2.50162 29.6875V23.1562L2.07974 23.1794C1.78599 23.195 1.55349 23.1675 1.31412 23.0875C1.09474 23.0144 0.857244 22.8688 0.657869 22.6844C0.476619 22.5169 0.279744 22.2538 0.189119 22.0575C0.0384941 21.7306 0.0322441 21.6669 0.00161906 18.8125L0.154744 18.6562C0.244119 18.5656 0.382244 18.4987 0.482869 18.4975C0.579119 18.4956 0.728494 18.55 0.814119 18.6175C0.945369 18.72 0.975994 18.8081 1.00474 19.1669C1.02849 19.4606 1.08224 19.6575 1.17662 19.7969C1.25224 19.9088 1.40537 20.0469 1.51724 20.1038C1.62912 20.1613 1.83287 20.2075 1.97037 20.2075C2.13349 20.2075 2.36162 20.1338 2.62662 19.9944C3.00162 19.7975 3.07662 19.7812 4.15787 19.7812L5.22037 20.2925C5.80474 20.5737 6.39537 20.8319 6.53287 20.865C6.67037 20.8988 6.93724 20.9444 7.12662 20.9662C7.31599 20.9881 7.66724 20.975 7.90787 20.9363C8.18349 20.8919 8.58787 20.7537 9.00162 20.5625C9.36287 20.3956 9.82662 20.2075 10.0329 20.145C10.311 20.0613 10.6016 20.0325 11.1579 20.0362C11.8285 20.04 11.9641 20.0606 12.4391 20.23C12.7316 20.3344 13.1954 20.5212 13.4704 20.6456C13.7941 20.7912 14.1466 20.895 14.4704 20.9394C14.8366 20.9894 15.0872 20.9888 15.4079 20.9375C15.6829 20.8931 16.0891 20.7544 16.5016 20.5631C16.8622 20.3956 17.3266 20.2081 17.5329 20.1456C17.8035 20.0644 18.1079 20.0331 18.6266 20.0344C19.1272 20.0362 19.4591 20.07 19.7204 20.1475C19.9266 20.2087 20.4191 20.41 20.8141 20.595C21.306 20.8256 21.681 20.9563 22.0016 21.0081C22.3685 21.0681 22.5791 21.0688 22.9704 21.01C23.3929 20.9469 23.6535 20.8463 25.8429 19.7812H26.4066C26.9272 19.7812 27.0016 19.7975 27.3766 19.9944C27.6416 20.1338 27.8697 20.2075 28.0329 20.2075C28.1704 20.2075 28.3741 20.1613 28.486 20.1038C28.5979 20.0469 28.7522 19.9088 28.8297 19.7969C28.966 19.6 28.9704 19.5469 28.9704 18.1138C28.9704 16.7031 28.9641 16.6263 28.8379 16.4575C28.7647 16.3606 28.6291 16.225 28.5366 16.1562C28.3685 16.0319 28.2697 16.0312 1.63599 16.0312L1.45912 16.1637C1.36224 16.2369 1.23349 16.3631 1.17224 16.445C1.11162 16.5269 1.03724 16.7488 1.00662 16.9375C0.966619 17.1819 0.908494 17.3138 0.804119 17.3931C0.723494 17.455 0.580369 17.5044 0.485994 17.5025C0.383494 17.5013 0.246619 17.4306 0.146619 17.3281C-0.00463097 17.1725 -0.0171309 17.1244 0.0134941 16.8125C0.0328691 16.6238 0.121619 16.3213 0.212244 16.1406C0.302869 15.96 0.482244 15.7088 0.610994 15.5825C0.739744 15.4556 0.985994 15.2875 1.15787 15.2081C1.32974 15.1287 1.53349 15.0638 1.61099 15.0631C1.68849 15.0625 1.75099 15.0413 1.74974 15.0156C1.74849 14.99 1.69287 14.8144 1.62662 14.625C1.51912 14.32 1.50537 14.0975 1.49912 11.0312L1.29724 10.9375C1.18287 10.8844 1.06849 10.7694 1.03287 10.6719C0.991202 10.5573 0.991202 10.4427 1.03287 10.3281C1.06724 10.2338 1.18349 10.1138 1.29162 10.0625C1.48224 9.97062 1.48787 9.95687 1.51349 9.46875C1.53599 9.0475 1.57412 8.90563 1.75537 8.56875C1.87349 8.34938 2.05474 8.09937 2.15787 8.01437C2.26099 7.92937 2.48599 7.7875 2.65787 7.69938C2.93349 7.55875 3.06037 7.5375 4.50162 7.5L4.50287 7.10938C4.50412 6.8525 4.54787 6.6225 4.63162 6.4375C4.70162 6.28312 4.83474 6.07562 4.92724 5.97625C5.01974 5.8775 5.23599 5.73 5.40787 5.64875C5.59349 5.56125 5.83412 5.50125 6.00162 5.50187ZM5.50474 7.15312L5.50162 7.5H6.50162C6.50162 6.87313 6.47412 6.785 6.34537 6.65625C6.24724 6.55813 6.11849 6.5 5.99849 6.5C5.87912 6.5 5.75224 6.55687 5.65787 6.65312C5.53662 6.7775 5.50662 6.87375 5.50474 7.15312ZM2.74224 8.81563C2.68349 8.9 2.60474 9.04625 2.56849 9.14062C2.53162 9.235 2.50162 9.46688 2.50162 9.65625V10H9.50162C9.47412 9.24063 9.43787 9.09125 9.33787 8.95813C9.26474 8.86063 9.12912 8.725 9.03662 8.65625C8.87412 8.53625 8.75787 8.53063 6.07537 8.51688C3.93724 8.50625 3.23224 8.52188 3.06662 8.5825C2.94724 8.62625 2.80162 8.73125 2.74224 8.81563ZM16.0047 8.90312C16.0022 8.9825 16.091 9 16.5016 9C16.9041 9 17.0016 8.98188 17.0016 8.90625C17.0016 8.855 16.9316 8.74187 16.8454 8.65625C16.7472 8.55812 16.6185 8.5 16.4985 8.5C16.3791 8.5 16.2522 8.55688 16.1579 8.65312C16.0754 8.7375 16.006 8.85 16.0047 8.90312ZM15.2829 10.2306C15.111 10.2956 14.8441 10.4225 14.6891 10.5138C14.5347 10.6044 14.2685 10.8144 14.0985 10.98C13.9285 11.1456 13.681 11.45 13.5485 11.6562C13.4166 11.8625 13.2529 12.2144 13.1847 12.4375C13.1172 12.6606 13.0622 12.8787 13.0629 12.9219C13.0641 12.9831 13.7941 13 16.5016 13C19.2091 13 19.9391 12.9831 19.9404 12.9219C19.941 12.8787 19.886 12.6606 19.8185 12.4375C19.7504 12.2144 19.5866 11.8625 19.4547 11.6562C19.3222 11.45 19.0747 11.1456 18.9047 10.98C18.7347 10.8144 18.4691 10.6044 18.3141 10.5125C18.1597 10.4212 17.8504 10.28 17.6266 10.1994C17.3472 10.0981 17.0441 10.0444 16.6579 10.0288C16.3485 10.0156 15.9829 10.0294 15.8454 10.0594C15.7079 10.0894 15.4547 10.1663 15.2829 10.2306ZM22.2147 10.2344C22.2635 10.3287 22.3829 10.4819 22.4804 10.5744C22.5779 10.6669 22.7847 10.8 22.9391 10.87C23.2004 10.9881 23.3441 10.9975 24.9704 10.9975C26.1854 10.9981 26.7947 10.9744 26.9635 10.9206C27.0979 10.8787 27.3191 10.7456 27.4566 10.625C27.5941 10.5044 27.7447 10.3287 27.7916 10.2344C27.8385 10.14 27.8766 10.0487 27.8766 10.0312C27.8766 10.0138 26.5829 10 25.0016 10C23.4204 10 22.1266 10.0138 22.1266 10.0312C22.1266 10.0487 22.166 10.14 22.2147 10.2344ZM22.2147 12.2344C22.2635 12.3287 22.3829 12.4819 22.4804 12.5744C22.5779 12.6669 22.7847 12.8 22.9391 12.87C23.2004 12.9881 23.3441 12.9975 24.9704 12.9975C26.1854 12.9981 26.7947 12.9744 26.9635 12.9206C27.0979 12.8787 27.3191 12.7456 27.4566 12.625C27.5941 12.5044 27.7447 12.3287 27.7916 12.2344C27.8385 12.14 27.8766 12.0487 27.8766 12.0312C27.8766 12.0138 26.5829 12 25.0016 12C23.4204 12 22.1266 12.0138 22.1266 12.0312C22.1266 12.0487 22.166 12.14 22.2147 12.2344ZM12.1579 14.1531C12.0679 14.2456 12.006 14.3831 12.0047 14.4969C12.0029 14.6194 12.0572 14.7431 12.1579 14.8438L12.3141 15H20.6947C20.9422 14.7481 21.0016 14.615 21.0016 14.5C21.0016 14.3831 20.9429 14.2537 20.8454 14.1562L20.6891 14H12.3085L12.1579 14.1531ZM22.2147 14.2344C22.2635 14.3287 22.3829 14.4819 22.4804 14.5744C22.5779 14.6669 22.7841 14.7994 22.9391 14.8694C23.2004 14.9881 23.3441 14.9969 24.9704 14.9975C26.1854 14.9975 26.7947 14.9744 26.9635 14.9206C27.0972 14.8781 27.3191 14.745 27.4566 14.625C27.5941 14.5044 27.7447 14.3287 27.7916 14.2344C27.8385 14.1394 27.8766 14.0481 27.8766 14.0312C27.8766 14.0138 26.5829 14 25.0016 14C23.4204 14 22.1266 14.0138 22.1266 14.0312C22.1266 14.0481 22.166 14.1394 22.2147 14.2344ZM3.50162 29H4.50162V23.0625C4.01724 22.82 3.79224 22.75 3.68912 22.75H3.50162V29ZM25.4785 23.0644L25.5016 29H26.5016V22.75C26.1866 22.7544 25.9566 22.825 25.7866 22.91L25.4785 23.0644ZM13.9991 1.99938C14.1316 1.99938 14.2679 2.07063 14.4472 2.23375C14.5885 2.36313 14.7716 2.58063 14.8535 2.71813C14.9354 2.85563 15.0204 3.12312 15.0422 3.31187C15.0697 3.55437 15.0516 3.74812 14.9785 3.96812C14.9222 4.14 14.7766 4.4075 14.6554 4.56187C14.5222 4.7325 14.436 4.91125 14.4372 5.015C14.4385 5.12937 14.5341 5.2925 14.721 5.49937C14.9222 5.72312 15.0022 5.865 15.0022 5.99937C15.0022 6.11437 14.9429 6.2475 14.8485 6.34312C14.7454 6.44812 14.6272 6.49937 14.4891 6.49813C14.3235 6.4975 14.2216 6.43313 13.9672 6.17C13.7647 5.96063 13.6129 5.73125 13.5447 5.53062C13.486 5.35875 13.4379 5.12 13.4372 4.99937C13.4372 4.87937 13.481 4.65438 13.5354 4.49937C13.5891 4.345 13.731 4.09188 13.8504 3.93687C13.9797 3.76937 14.0672 3.58625 14.066 3.48375C14.0647 3.36917 13.9706 3.20771 13.7835 2.99938C13.5766 2.77 13.5029 2.63688 13.5047 2.49688C13.5066 2.3825 13.5679 2.245 13.6585 2.15313C13.7529 2.05687 13.8797 1.99938 13.9991 1.99938ZM15.9991 1.99938C16.1316 1.99938 16.2679 2.07063 16.4472 2.23375C16.5885 2.36313 16.7716 2.58063 16.8535 2.71813C16.9354 2.85563 17.0204 3.12312 17.0422 3.31187C17.0697 3.55437 17.0516 3.74812 16.9785 3.96812C16.9222 4.14 16.7766 4.4075 16.6554 4.56187C16.5222 4.7325 16.436 4.91125 16.4372 5.015C16.4385 5.12937 16.5341 5.2925 16.721 5.49937C16.9222 5.72312 17.0022 5.865 17.0022 5.99937C17.0022 6.11437 16.9429 6.2475 16.8485 6.34312C16.7516 6.44187 16.6254 6.49937 16.5047 6.49937C16.3722 6.49937 16.236 6.42812 16.0566 6.265C15.9154 6.13625 15.7322 5.91812 15.6504 5.78062C15.5685 5.64313 15.4835 5.37625 15.4616 5.18687C15.4341 4.94438 15.4529 4.75125 15.5254 4.53062C15.5816 4.35875 15.7272 4.09188 15.8485 3.93687C15.9816 3.76687 16.0679 3.58812 16.0666 3.48375C16.0654 3.37 15.9697 3.20688 15.7835 2.99938C15.5766 2.77 15.5029 2.63688 15.5047 2.49688C15.5066 2.3825 15.5679 2.245 15.6585 2.15313C15.7529 2.05687 15.8797 1.99938 15.9991 1.99938ZM18.0147 2.00062C18.1804 2.00187 18.2822 2.06562 18.5366 2.32875C18.7391 2.53812 18.891 2.76813 18.9591 2.96813C19.0179 3.14 19.066 3.37937 19.0666 3.49937C19.0666 3.62 19.0229 3.845 18.9685 3.99937C18.9147 4.15438 18.7729 4.4075 18.6535 4.56187C18.5241 4.72937 18.4366 4.9125 18.4379 5.015C18.4391 5.13 18.5335 5.29146 18.721 5.49937C18.9222 5.72312 19.0022 5.865 19.0022 5.99937C19.0022 6.11437 18.9429 6.2475 18.8485 6.34312C18.7516 6.44187 18.6254 6.49937 18.5047 6.49937C18.3722 6.49937 18.236 6.42812 18.0566 6.265C17.9154 6.13625 17.7322 5.91812 17.6504 5.78062C17.5685 5.64313 17.4835 5.37625 17.4616 5.18687C17.4341 4.94438 17.4529 4.75125 17.5254 4.53062C17.5816 4.35875 17.7272 4.09188 17.8485 3.93687C17.9816 3.76687 18.0679 3.58812 18.0666 3.48375C18.0654 3.37 17.9697 3.20688 17.7835 2.99938C17.5766 2.77 17.5029 2.63688 17.5047 2.49688C17.5066 2.3825 17.5679 2.245 17.6585 2.15313C17.7585 2.05063 17.8772 1.99979 18.0147 2.00062Z" fill="black"/>
</svg>
