<svg width="32" height="30" viewBox="0 0 32 30" fill="none" xmlns="http://www.w3.org/2000/svg">
<path fill-rule="evenodd" clip-rule="evenodd" d="M16.8372 0.000248818C16.5964 -0.00347154 16.2025 0.0349722 15.9618 0.0858171C15.7211 0.137282 15.3128 0.281756 15.0552 0.407008C14.7082 0.576285 14.4556 0.764783 14.0817 1.13496C13.8041 1.40965 13.489 1.78788 13.3814 1.97514C13.2739 2.1624 13.1313 2.46995 13.0644 2.65721C12.9982 2.84446 12.91 3.22146 12.8681 3.49429C12.8118 3.86694 12.81 4.12923 12.8612 4.54839C12.8981 4.85532 13.0044 5.32967 13.097 5.60249C13.1982 5.90322 13.3952 6.28766 13.9298 7.05963L13.3471 7.63319C13.0269 7.9488 12.6368 8.40206 12.4805 8.64079C12.3242 8.87951 12.0766 9.31169 11.9296 9.60188C11.7833 9.89207 11.5557 10.4501 11.4244 10.842C11.2931 11.2339 11.1287 11.8341 11.0587 12.1751C10.9886 12.5162 10.8892 13.1579 10.8367 13.6013C10.7842 14.0446 10.741 14.8538 10.741 15.3994C10.741 15.9451 10.7692 16.4821 10.8661 16.7946H8.80279V10.2219L8.59834 9.8344C8.44516 9.54422 8.31573 9.3954 8.08251 9.24163C7.9112 9.1294 7.67298 9.01034 7.55231 8.9781C7.42414 8.94338 6.06361 8.92602 4.26979 8.9347C1.28551 8.9502 1.19985 8.95454 0.956001 9.08227C0.818449 9.1542 0.610868 9.30797 0.494574 9.4233C0.378279 9.53863 0.223217 9.7445 0.15069 9.88091C0.021265 10.1227 0.0175133 10.2071 0.00250816 13.1982C-0.00687027 14.9914 0.0106335 16.3574 0.0456486 16.4845C0.0781612 16.6042 0.197584 16.8374 0.311378 17.0035C0.44643 17.2007 0.637753 17.3731 1.2061 17.6937L4.05095 17.7247V18.4687C4.05095 18.9995 4.07846 19.2792 4.14786 19.4453C4.20101 19.5731 4.32668 19.7616 4.60804 20.0499L4.48112 20.3289C4.41172 20.4827 4.28917 20.8312 4.20914 21.104C4.12911 21.3768 4.02969 21.8791 3.98843 22.2201C3.94341 22.5878 3.92966 23.0795 3.95404 23.4292C3.97717 23.7535 4.01781 24.1857 4.0447 24.3903C4.07784 24.6421 4.06658 24.8721 4.01031 25.1034C3.96529 25.2906 3.92715 25.6329 3.92715 25.863C3.9259 26.2245 3.94654 26.3026 4.07909 26.4365C4.20976 26.568 4.29042 26.5915 4.98882 26.5915L5.05321 26.8551C5.08885 27.0001 5.17514 27.2724 5.24454 27.4596C5.31394 27.6469 5.48901 27.9798 5.63281 28.1981C5.77724 28.417 6.07861 28.7611 6.30182 28.9633C6.54129 29.179 6.91394 29.4308 7.20843 29.574C7.48353 29.7086 7.90557 29.8592 8.14629 29.9089C8.38701 29.9591 8.75277 30 8.9591 30C9.16543 30 9.5312 29.9591 9.77192 29.9089C10.0126 29.8592 10.4484 29.7011 10.741 29.5579C11.1468 29.3589 11.3844 29.1865 11.7458 28.8281C12.1091 28.4678 12.2798 28.2359 12.4805 27.8316C12.6236 27.5415 12.78 27.1508 12.9125 26.6225H22.7107L22.7651 26.9016C22.7951 27.0553 22.8801 27.2463 22.9545 27.3263C23.0746 27.4565 23.1283 27.4689 23.4335 27.4379C23.6223 27.4187 23.8336 27.3871 23.9024 27.3672C24.0068 27.3368 24.0631 27.4001 24.2425 27.7517C24.382 28.0245 24.6127 28.3265 24.899 28.6098C25.1879 28.8957 25.4811 29.1152 25.7469 29.2441C25.9701 29.3527 26.3221 29.4835 26.5284 29.5356C26.7347 29.5877 27.1286 29.6304 27.4038 29.6304C27.6789 29.6304 28.0728 29.587 28.2791 29.5343C28.4854 29.4816 28.8368 29.3489 29.0606 29.2398C29.3207 29.1127 29.6265 28.8845 29.9085 28.6067C30.223 28.2979 30.4168 28.0381 30.5819 27.7076C30.7088 27.4516 30.8545 27.0473 30.9051 26.8085C30.9551 26.5698 30.997 26.235 30.997 25.7544L31.3822 25.6614C31.6635 25.5932 31.8023 25.5225 31.8986 25.3967C32.0237 25.2342 32.0262 25.2069 31.9436 24.8696C31.8955 24.6743 31.7273 24.2632 31.5697 23.9563C31.339 23.508 31.1721 23.2885 30.7188 22.8389C30.3968 22.5202 29.9804 22.1798 29.7484 22.0471C29.5246 21.9188 29.1169 21.7427 28.8418 21.6552C28.5667 21.5678 28.1203 21.4779 27.8502 21.455C27.5088 21.4264 27.3444 21.3855 27.3106 21.321C27.2837 21.2702 27.1149 20.7121 26.9354 20.0809C26.721 19.3269 26.5628 18.8854 26.4746 18.7924C26.3971 18.7112 26.2683 18.6523 26.1689 18.6529C26.0707 18.6541 25.9301 18.7211 25.8406 18.8098C25.7544 18.8953 25.6843 19.007 25.6843 19.0578C25.6843 19.1086 25.8538 19.7299 26.0607 20.4374C26.2671 21.1449 26.4221 21.7588 26.4046 21.8016C26.3865 21.8443 25.6056 22.7298 22.9645 25.6608L22.5425 25.6614C22.3105 25.6614 22.1205 25.6472 22.1205 25.6304C22.1205 25.6137 22.1592 25.5225 22.2074 25.4289C22.2549 25.3353 22.4362 24.882 22.61 24.4213C22.7838 23.9606 23.0271 23.2351 23.1509 22.8092C23.2747 22.3826 23.4316 21.7129 23.5004 21.321C23.5691 20.9291 23.6548 20.2316 23.6917 19.7709C23.7411 19.1558 23.7392 18.6951 23.6861 18.0347C23.646 17.5399 23.5454 16.7729 23.4635 16.3295C23.3809 15.8862 23.214 15.1818 23.0921 14.7639C22.9708 14.346 22.8707 13.9907 22.8707 13.9733C22.8707 13.9559 23.1659 13.9423 24.1838 13.9423L24.2432 14.1438C24.2757 14.2548 24.4882 14.9871 24.7152 15.7715C25.0378 16.8845 25.1623 17.228 25.2817 17.3371C25.3655 17.414 25.4836 17.4779 25.5437 17.4785C25.6037 17.4797 25.7306 17.4239 25.825 17.3545C25.9507 17.2627 25.997 17.1747 25.9976 17.0271C25.9976 16.9161 25.8156 16.1975 25.5918 15.4304C25.3686 14.6628 25.1854 14.0142 25.1848 13.9888C25.1848 13.9634 25.3386 13.9423 25.528 13.9423C25.8113 13.9423 25.8994 13.915 26.1845 13.6323V12.2371C26.1845 11.1347 26.1651 10.7967 26.0907 10.625C26.0376 10.5022 25.9157 10.3677 25.8094 10.315C25.7062 10.2641 25.5587 10.2226 25.4811 10.2232C25.4036 10.2232 24.5245 10.4935 21.714 11.4211L18.8379 11.2041L18.5591 10.9766C18.4053 10.8513 18.1414 10.6231 17.6637 10.1909L17.6156 9.47787C17.5893 9.08599 17.5368 8.65319 17.4999 8.51678C17.4624 8.38036 17.4318 8.24767 17.4318 8.22225C17.4311 8.19683 17.5787 8.1342 17.7594 8.08335C17.9401 8.03313 18.2283 7.91036 18.4003 7.81053C18.5722 7.7107 18.8254 7.53398 18.963 7.41679C19.1005 7.30022 19.3244 7.03917 19.46 6.83765C19.5957 6.63551 19.7764 6.27526 19.8602 6.03653C19.9771 5.70542 20.0153 5.4667 20.0259 4.45538L20.276 4.45724C20.4342 4.45848 20.568 4.4188 20.6393 4.34873C20.728 4.26254 20.7518 4.14473 20.7487 3.80432C20.7462 3.56559 20.7024 3.20286 20.6505 2.99824C20.5986 2.79362 20.4511 2.41662 20.3229 2.16116C20.1541 1.82447 19.9515 1.55784 19.5888 1.1951C19.3131 0.919178 18.933 0.607908 18.7441 0.502498C18.5547 0.397087 18.2089 0.258194 17.9751 0.193088C17.7413 0.127981 17.488 0.0597746 17.4124 0.0411728C17.3367 0.0231911 17.0779 0.00458924 16.8372 0.000248818ZM18.1658 1.25463C18.329 1.33586 18.6035 1.52684 18.7754 1.67813C18.9474 1.83005 19.1806 2.09171 19.2937 2.25913C19.4063 2.42716 19.5501 2.70371 19.6126 2.87423C19.6758 3.04474 19.7452 3.26115 19.767 3.35477L19.8071 3.52529C16.3413 3.55505 16.1963 3.56497 15.9975 3.68031C15.8793 3.74851 15.7242 3.90229 15.6536 4.02134C15.536 4.2179 15.521 4.36733 15.4929 5.62047L15.4616 7.00197C15.0252 6.72542 14.7651 6.50096 14.6019 6.32548C14.4387 6.14939 14.2199 5.8313 14.1167 5.61799C14.0111 5.40035 13.8841 4.98553 13.8285 4.6724C13.7466 4.21604 13.741 4.02382 13.7972 3.6183C13.846 3.26549 13.9367 2.97902 14.1099 2.6262C14.2943 2.25169 14.4519 2.04087 14.752 1.76494C14.9702 1.56404 15.2828 1.334 15.446 1.25339C15.6092 1.17278 15.9049 1.06489 16.1025 1.01343C16.3001 0.962582 16.6308 0.922278 16.8372 0.924759C17.0435 0.927239 17.3599 0.969403 17.5406 1.01839C17.7212 1.06675 18.0026 1.1734 18.1658 1.25463ZM19.0805 5.07544C19.0761 5.33649 19.0218 5.60993 18.9267 5.85052C18.8348 6.08366 18.661 6.34967 18.459 6.56359C18.2433 6.79301 18.007 6.96414 17.7375 7.0863C17.4218 7.23015 17.2454 7.26921 16.8997 7.27231L16.462 7.27666V4.48638C18.8905 4.45414 18.9986 4.46158 19.0411 4.56265C19.0668 4.6228 19.0849 4.85346 19.0805 5.07544ZM15.571 8.01949C15.8374 8.10568 16.1188 8.17636 16.1963 8.17698C16.2738 8.17698 16.3695 8.19806 16.4101 8.22349C16.4501 8.24829 16.5289 8.50562 16.5858 8.7958C16.6427 9.08599 16.6802 9.32781 16.669 9.3334C16.6583 9.3396 16.4808 9.28813 16.2744 9.21868C16.0143 9.13126 15.8036 9.10211 15.5867 9.12257C15.4147 9.13932 15.1615 9.20814 15.024 9.27635C14.8864 9.34394 14.6776 9.49399 14.56 9.60932C14.4425 9.72465 14.2887 9.94477 14.2186 10.0979C14.1367 10.2771 14.0911 10.5103 14.0898 10.749C14.0886 11.0057 14.1305 11.2078 14.2236 11.4001C14.298 11.5532 14.4694 11.7907 14.6038 11.9271C14.7388 12.0635 15.1915 12.3984 15.6098 12.6712L16.3701 13.1672C16.307 13.5517 16.2119 13.9287 16.1194 14.2523L15.9499 14.8414L11.6789 14.8724C11.7358 13.9355 11.8065 13.3421 11.8734 12.9502C11.9396 12.5583 12.0609 11.986 12.1428 11.6791C12.2247 11.3722 12.3942 10.8699 12.5192 10.563C12.6443 10.256 12.8406 9.8375 12.9557 9.63288C13.0707 9.42826 13.3314 9.05189 13.5346 8.7958C13.7385 8.54034 14.0298 8.23031 14.183 8.10692C14.3362 7.98352 14.5325 7.83905 14.62 7.78572C14.7582 7.70016 14.7982 7.69892 14.9327 7.7758C15.0171 7.82417 15.3047 7.93392 15.571 8.01949ZM7.70737 10.1544C7.85118 10.3292 7.86493 10.3974 7.86493 10.935V11.5241H0.92474C0.956003 10.297 0.959753 10.2827 1.16046 10.0837L1.36491 9.88091C5.94231 9.86169 7.33348 9.87967 7.41038 9.90881C7.48728 9.93857 7.62109 10.0483 7.70737 10.1544ZM17.181 11.0218C17.645 11.4193 18.1164 11.8198 18.2283 11.9128C18.3402 12.0059 18.5228 12.0951 18.6347 12.1106C18.7466 12.1261 19.028 12.154 19.26 12.1727L19.682 12.2061V13.0122L17.8375 13.0097C15.9962 11.8161 15.386 11.3914 15.2934 11.2953C15.2015 11.1998 15.0946 11.0373 15.0565 10.935C15.0183 10.8327 15.0021 10.6795 15.0208 10.594C15.0396 10.509 15.1321 10.3615 15.2265 10.2672C15.3366 10.1575 15.4898 10.083 15.6492 10.0626C15.8386 10.0372 15.9524 10.0626 16.1181 10.1649C16.2382 10.2393 16.7165 10.625 17.181 11.0218ZM25.2467 13.0122H22.9958C22.9958 12.6278 22.9533 12.4114 22.902 12.2836C22.8501 12.1559 22.8151 12.0449 22.8239 12.0381C22.8326 12.0307 23.3459 11.8558 23.9649 11.6499C24.5839 11.4441 25.1254 11.2754 25.1685 11.276C25.2273 11.276 25.2467 11.4912 25.2467 12.1441V13.0122ZM21.886 12.4145C21.946 12.4362 22.0135 12.531 22.0348 12.6247C22.0567 12.7183 22.0467 12.8374 22.0129 12.8882C21.9641 12.9607 21.8091 12.9812 21.3008 12.9812H20.6511C20.6511 12.3432 20.6674 12.2979 20.7762 12.2917C20.845 12.2874 21.0982 12.3047 21.3389 12.3295C21.5796 12.3543 21.826 12.3928 21.886 12.4145ZM7.86493 13.4463H0.92474V12.4542H7.86493V13.4463ZM19.7289 13.9398L21.8704 13.9423C22.1617 14.8792 22.3193 15.4726 22.4074 15.8645C22.4962 16.2564 22.6081 16.8708 22.6557 17.2286C22.7038 17.5864 22.7432 18.354 22.7432 18.9338C22.7432 19.5191 22.7038 20.2638 22.6538 20.6079C22.6044 20.949 22.5225 21.4233 22.4706 21.6621C22.4193 21.9008 22.2836 22.4173 22.1692 22.8092L21.961 23.5222L20.995 23.5532C20.8956 23.0485 20.7999 22.7627 20.7174 22.5921C20.6355 22.4216 20.4673 22.1916 20.3441 22.0806C20.221 21.9696 20.0003 21.8251 19.854 21.7594C19.7076 21.6937 19.5388 21.6236 19.4788 21.6044C19.3788 21.5721 19.3675 21.4227 19.3475 19.8794C19.3306 18.5413 19.3031 18.093 19.2162 17.7247C19.1556 17.4686 19.0017 17.0364 18.8742 16.7636C18.7198 16.4349 18.5166 16.1348 18.2708 15.8738C17.9951 15.5805 17.7719 15.4168 17.3999 15.2345L16.8997 14.9896C17.1191 14.0341 17.2035 13.7575 17.2286 13.7588C17.2542 13.7594 17.3449 13.8003 17.4311 13.8493C17.5581 13.9212 17.9901 13.9386 19.7289 13.9398ZM7.86493 16.7946L1.36491 16.7636L0.956001 16.3587L0.92474 14.3763H7.86493V16.7946ZM17.1185 16.1212C17.273 16.2099 17.4855 16.3773 17.5893 16.492C17.6937 16.6073 17.8525 16.8268 17.942 16.9806C18.0314 17.1344 18.1489 17.3991 18.2027 17.5697C18.2565 17.7402 18.3302 18.0961 18.3659 18.3602C18.4021 18.6244 18.4315 19.441 18.4315 20.1739V21.507H16.6808C16.6496 18.5258 16.6471 18.4948 16.4933 18.2313C16.407 18.0831 16.2382 17.902 16.1181 17.8282C15.9156 17.7036 15.7911 17.6906 14.43 17.6558C13.1457 17.6224 12.9175 17.6013 12.6168 17.4878C12.4279 17.4159 12.1985 17.2795 12.1078 17.1846C12.0172 17.0891 11.894 16.9142 11.8333 16.7946C11.7727 16.6749 11.7064 16.4027 11.6858 16.1894L11.6476 15.8012C15.5529 15.8093 16.362 15.8341 16.5558 15.8856C16.7102 15.9265 16.9635 16.0325 17.1185 16.1212ZM11.5057 17.8952C11.5951 17.9888 11.8321 18.1463 12.0328 18.2449C12.2335 18.3435 12.6086 18.4607 12.8669 18.5059C13.1382 18.5537 13.8166 18.589 14.4769 18.5909L15.6179 18.5928C15.7148 18.8327 15.743 19.0001 15.743 19.1198V19.3368L11.8565 19.3058C11.6664 19.5458 11.612 19.6927 11.6139 19.7864C11.6151 19.88 11.6727 20.0127 11.7414 20.0809C11.8609 20.1993 11.9496 20.2049 13.8047 20.2049H15.743C15.7724 23.751 15.7868 23.9811 15.8837 24.1299C15.9437 24.2217 16.0912 24.3395 16.2119 24.3903C16.3945 24.4678 16.8547 24.4833 18.9942 24.4833C20.4042 24.4833 21.5577 24.4976 21.5577 24.5143C21.5577 24.5311 21.4521 24.7971 21.3233 25.1046L21.0888 25.6645L14.1174 25.6614C14.0773 25.445 14.0323 25.215 13.9917 25.0104C13.9504 24.8058 13.8454 24.4567 13.7572 24.2353C13.6691 24.0139 13.4815 23.6407 13.3414 23.4063C13.2007 23.1725 12.9025 22.793 12.6793 22.5642C12.4555 22.3354 12.0616 22.0099 11.804 21.8406C11.5457 21.672 11.0956 21.4469 10.8036 21.3415C10.511 21.2354 10.0683 21.1176 9.81881 21.0798C9.56934 21.042 9.20357 21.011 9.006 21.0104C8.80842 21.0097 8.39326 21.0538 8.08377 21.1071C7.77427 21.161 7.32409 21.2857 7.08338 21.3849C6.84266 21.4841 6.46251 21.6807 6.2393 21.822C6.01546 21.964 5.61468 22.2995 5.34833 22.5686C4.95005 22.9704 4.86377 23.0324 4.86377 22.9177C4.86377 22.8408 4.89252 22.5413 4.92754 22.2511C4.96255 21.9609 5.05009 21.5287 5.12199 21.29C5.19389 21.0513 5.31582 20.7307 5.39397 20.5769C5.51527 20.3376 5.56966 20.2917 5.77787 20.2551C5.91105 20.2322 6.94895 20.2105 8.08377 20.208L10.1471 20.203C10.3653 19.9643 10.4297 19.8459 10.4303 19.7864C10.4315 19.7268 10.379 19.6084 10.3134 19.5228L10.194 19.3678C5.31894 19.2878 5.1395 19.2773 5.06572 19.1713C5.01382 19.0969 4.98694 18.8296 4.98757 18.3912L4.98882 17.7247H11.3432L11.5057 17.8952ZM10.8348 22.3695C11.1531 22.5227 11.4945 22.7552 11.7727 23.0088C12.0134 23.2277 12.3348 23.6004 12.4861 23.8366C12.6374 24.0728 12.8244 24.4337 12.9019 24.6383C12.9794 24.843 13.0663 25.1561 13.0957 25.3347L13.1482 25.659C6.72824 25.6608 4.86377 25.6404 4.86314 25.6149C4.86314 25.5895 4.92066 25.3452 4.99132 25.0724C5.06197 24.7996 5.21703 24.3947 5.33645 24.1733C5.45524 23.9519 5.67471 23.6165 5.82476 23.4292C5.97482 23.242 6.2493 22.9716 6.43438 22.829C6.61945 22.6864 6.93957 22.4874 7.1459 22.3863C7.35223 22.2852 7.67611 22.155 7.86493 22.098C8.055 22.0403 8.5033 21.982 8.86532 21.9677C9.30986 21.951 9.65375 21.9727 9.92823 22.0353C10.1521 22.0868 10.5597 22.2368 10.8348 22.3695ZM29.1857 22.8061C29.4552 22.9419 29.7503 23.17 30.061 23.4838C30.3599 23.7851 30.6044 24.1026 30.7344 24.3593C30.8463 24.5813 30.917 24.7785 30.8907 24.7983C30.8645 24.8182 29.267 25.1927 27.3412 25.6298C25.4155 26.0676 23.7867 26.4421 23.7217 26.4619C23.6329 26.4892 23.6092 26.4725 23.6279 26.3944C23.6417 26.3367 24.4476 25.4091 25.4186 24.3327L27.1849 22.3751C27.8395 22.3819 28.1978 22.4328 28.4041 22.4923C28.6105 22.5525 28.9625 22.6932 29.1857 22.8061ZM19.5813 22.6591C19.6801 22.7248 19.8039 22.8619 19.8565 22.9642C19.909 23.0665 19.9759 23.2407 20.0046 23.3517L20.0572 23.5532H16.6808V22.4371C18.5466 22.4452 19.1587 22.4688 19.2443 22.4942C19.3306 22.5196 19.4819 22.594 19.5813 22.6591ZM29.991 26.607C29.9522 26.7862 29.8353 27.1 29.7303 27.3046C29.6259 27.5092 29.4045 27.8093 29.2382 27.9712C29.0719 28.133 28.7461 28.3562 28.5136 28.4672C28.1165 28.6569 28.0515 28.6687 27.4038 28.6687C26.7529 28.6687 26.6929 28.6576 26.2783 28.461C25.992 28.3252 25.7219 28.133 25.4968 27.903C25.3073 27.7101 25.1216 27.4609 25.0847 27.3492C25.0478 27.237 25.0197 27.1366 25.0228 27.1248C25.0253 27.1136 26.097 26.8619 27.4038 26.5655C28.7105 26.2691 29.8391 26.0112 29.9116 25.9925C30.0198 25.964 30.0454 25.987 30.0523 26.1197C30.0573 26.209 30.0298 26.4278 29.991 26.607ZM11.9071 26.793C11.8846 26.904 11.7758 27.1762 11.6658 27.3976C11.5451 27.6413 11.3169 27.9488 11.0881 28.1764C10.848 28.4145 10.5616 28.6216 10.3034 28.7431C10.0802 28.8485 9.74941 28.9657 9.56871 29.0029C9.38865 29.0408 9.11416 29.0718 8.9591 29.0718C8.80467 29.0718 8.53019 29.0408 8.34949 29.0029C8.16942 28.9657 7.83867 28.8492 7.61483 28.745C7.35411 28.6228 7.07275 28.4201 6.8289 28.1776C6.59569 27.9464 6.37248 27.645 6.25118 27.3976C6.14176 27.1762 6.03172 26.9034 6.00546 26.7918L5.95794 26.5884L11.9484 26.5915L11.9071 26.793Z" fill="black"/>
</svg>
