<svg width="30" height="30" viewBox="0 0 30 30" fill="none" xmlns="http://www.w3.org/2000/svg">
<path fill-rule="evenodd" clip-rule="evenodd" d="M14.4744 0H15.4787L15.4793 3.78145L16.734 5.02786C17.9008 6.18574 17.9894 6.28892 17.9894 6.48415C17.9894 6.63951 17.9474 6.73039 17.6645 6.97662H12.3478L12.1705 6.83005C12.0305 6.71397 11.9939 6.63776 11.9951 6.46363C11.9969 6.25668 12.0689 6.17226 14.4727 3.78145L14.4744 0ZM13.6769 5.98055H16.2762C15.295 4.98037 15.002 4.69016 14.9919 4.69016C14.9825 4.69016 14.6824 4.98037 14.3256 5.33565L13.6769 5.98055ZM1.56134 13.4831C1.83781 13.4825 1.99613 13.5194 2.24542 13.6443C2.44037 13.7416 2.64713 13.9058 2.76233 14.0553C2.86807 14.1924 2.98149 14.4035 3.01339 14.5243C3.04588 14.6456 3.24556 15.9577 3.45763 17.441C3.66971 18.9242 3.8558 20.1976 3.9001 20.4016H5.70188C6.69256 20.4016 7.63007 20.428 7.78425 20.4597C7.93844 20.4919 8.17769 20.5974 8.31592 20.6942C8.45416 20.7915 8.63315 20.9697 8.71409 21.0905C8.79443 21.2119 8.8919 21.4557 8.92912 21.6328C8.98701 21.9031 8.98228 22.0104 8.90076 22.2924C8.83755 22.5122 8.72354 22.7168 8.57585 22.8786C8.45061 23.0158 8.26335 23.1677 7.97152 23.3037L7.97625 29.8992H6.97198V23.3916L2.81845 23.4209L1.87621 26.704C1.35753 28.5098 0.929835 29.993 0.925109 29.9995C0.920383 30.0059 0.710077 29.9532 0.457829 29.8822C0.19672 29.8089 -0.000589422 29.721 1.32301e-06 29.6794C0.000592068 29.6395 0.42652 28.1287 1.89157 23.0398L1.55898 22.7321C1.37644 22.5632 1.15845 22.3058 1.07457 22.1604C0.990681 22.0156 0.887301 21.7782 0.845358 21.6328C0.802824 21.488 0.605515 19.918 0.407616 18.1445C0.077389 15.1914 0.0537592 14.893 0.123467 14.5976C0.16541 14.4187 0.280015 14.1725 0.381032 14.0441C0.480868 13.9169 0.705942 13.7387 0.881984 13.6484C1.12832 13.5212 1.2831 13.4836 1.56134 13.4831ZM1.16613 14.6579C1.05271 14.8022 1.05389 14.8186 1.41247 18.0419C1.61096 19.8236 1.80886 21.3672 1.85199 21.4716C1.89511 21.5765 2.02153 21.7659 2.13259 21.8919C2.24365 22.018 2.46754 22.1827 2.63 22.2578C2.9236 22.3932 2.94073 22.3938 5.28835 22.3955C7.5769 22.3973 7.65547 22.3938 7.78425 22.2789C7.85751 22.2138 7.93312 22.1012 7.95262 22.0285C7.9727 21.9564 7.95262 21.8186 7.90831 21.7225C7.86459 21.6269 7.76181 21.515 7.68087 21.4745C7.56981 21.4188 7.0027 21.4 5.4065 21.4C3.61005 21.3995 3.25914 21.386 3.1469 21.3109C3.05593 21.2505 2.99567 21.1263 2.95491 20.9146C2.92242 20.7458 2.70975 19.3141 2.48172 17.7341C2.2537 16.1541 2.0552 14.8221 2.04103 14.7734C2.02626 14.7254 1.96718 14.6427 1.9087 14.5899C1.85081 14.5378 1.74979 14.4809 1.68481 14.4645C1.61983 14.4481 1.50227 14.4522 1.4237 14.4738C1.34513 14.495 1.22934 14.5782 1.16613 14.6579ZM28.416 13.4907C28.6411 13.4866 28.8313 13.527 29.0363 13.6214C29.1988 13.6965 29.4179 13.8547 29.5237 13.9726C29.6294 14.091 29.7564 14.2862 29.8055 14.407C29.8551 14.5284 29.8953 14.7852 29.8947 14.9786C29.8941 15.1721 29.747 16.6495 29.568 18.2617C29.389 19.874 29.2141 21.3121 29.1799 21.4569C29.1456 21.6023 29.0505 21.8661 28.9684 22.0432C28.8786 22.2372 28.6748 22.5063 28.0988 23.0692L29.0582 26.4109C29.5863 28.2489 30.0099 29.755 29.9998 29.7573C29.9898 29.7597 29.7818 29.8171 29.5385 29.8857C29.2059 29.9795 29.0854 29.993 29.0546 29.9403C29.0322 29.9016 28.5933 28.4124 27.1459 23.3904L23.0403 23.3916L23.0107 29.8699L22.036 29.8992L22.0378 23.3623L21.7276 23.1571C21.5551 23.0428 21.3448 22.8352 21.2521 22.6881C21.1398 22.5099 21.0748 22.3111 21.0506 22.0725C21.0258 21.8251 21.0435 21.6346 21.1109 21.4276C21.1723 21.24 21.2976 21.0459 21.4588 20.8882C21.5977 20.7528 21.8174 20.5945 21.9474 20.5365C22.1571 20.4433 22.4046 20.4298 24.1479 20.4163C25.2284 20.4087 26.1121 20.3823 26.1121 20.3577C26.1115 20.3336 26.2959 19.0344 26.5209 17.4703C26.7761 15.6974 26.9705 14.5295 27.0378 14.3677C27.0975 14.2241 27.2664 14.0013 27.4147 13.8694C27.5624 13.7381 27.7751 13.6003 27.8873 13.5634C27.9996 13.5264 28.237 13.4936 28.416 13.4907ZM27.9411 14.8174C27.9074 14.9388 27.6823 16.4091 27.4401 18.0859C27.039 20.8677 26.9888 21.1462 26.8665 21.267C26.733 21.3983 26.7259 21.3989 24.5366 21.4135L22.3408 21.4276C22.0821 21.6744 22.0336 21.7817 22.0342 21.9113C22.0354 22.035 22.088 22.1534 22.1837 22.2484L22.3314 22.3949L27.205 22.3656C27.6374 22.11 27.8448 21.9253 27.9446 21.7905C28.0445 21.6557 28.1502 21.4528 28.1797 21.3397C28.2093 21.2271 28.3806 19.8154 28.5614 18.2031C28.7415 16.5909 28.8898 15.1533 28.8904 15.0079C28.8916 14.8086 28.8591 14.7142 28.7575 14.6192C28.6831 14.5501 28.5696 14.4791 28.5046 14.4609C28.4397 14.4422 28.3003 14.4656 28.1945 14.5125C28.0521 14.5759 27.9866 14.655 27.9411 14.8174ZM14.9913 13.4332C21.5545 13.4262 22.5346 13.4361 22.7153 13.513C22.8731 13.5804 22.9369 13.6531 22.9853 13.8207C23.0237 13.9532 23.0414 14.4527 23.0296 15.0771C23.0113 16.0902 23.0072 16.1166 22.7153 16.4173L16.5125 16.4443V26.8799L17.3892 26.9092C18.2381 26.938 18.2694 26.9432 18.381 27.0851C18.4868 27.22 18.4962 27.3284 18.4939 28.3896C18.4915 29.5287 18.4892 29.5504 18.2062 29.8699L15.1444 29.8881C13.1145 29.9004 12.0069 29.8851 11.8604 29.8441C11.6861 29.7954 11.6188 29.7356 11.5449 29.5621C11.4681 29.3821 11.4551 29.1505 11.4711 28.277C11.4906 27.2329 11.4941 27.2088 11.6389 27.0593C11.7848 26.9086 11.7978 26.9063 13.4702 26.9092V16.415H7.26735L7.11966 16.2684C6.97198 16.1224 6.97198 16.1201 6.96962 14.964C6.96784 13.8805 6.97552 13.7961 7.09013 13.649C7.15747 13.5628 7.27149 13.4801 7.34356 13.4666C7.41504 13.4526 10.8567 13.4379 14.9913 13.4332ZM7.97625 15.4183H22.036L22.0064 14.451L7.97684 14.4217L7.97625 15.4183ZM14.4886 21.7207L14.504 26.8799L15.4787 26.9092V16.415C14.68 16.415 14.5217 16.4379 14.5016 16.4883C14.4863 16.5281 14.4804 18.8832 14.4886 21.7207ZM12.4954 28.8732L17.4872 28.9026V27.9059H12.4612L12.4954 28.8732Z" fill="black"/>
</svg>
