<svg width="29" height="26" viewBox="0 0 29 26" fill="none" xmlns="http://www.w3.org/2000/svg">
<path fill-rule="evenodd" clip-rule="evenodd" d="M18.0866 4.01921C20.7061 4.01338 23.2575 4.0268 23.7564 4.04896C24.6295 4.08804 24.6698 4.09504 24.8337 4.24321C24.9612 4.35871 25.1154 4.68128 25.8939 6.66225L25.8718 7.33307C25.8531 7.89656 25.8281 8.04589 25.7164 8.26639C25.6427 8.41047 25.5254 8.60763 25.4551 8.70388C25.3848 8.80013 25.2226 8.95121 24.862 9.19971V10.8913C24.862 12.2896 24.8467 12.6209 24.7736 12.8017C24.7254 12.9219 24.6295 13.0823 24.5609 13.1576C24.4929 13.2322 24.3602 13.3372 24.2667 13.3909C24.1159 13.476 23.7337 13.4906 17.7084 13.5455L19.372 14.6923C20.2865 15.3228 21.2135 15.9295 21.4318 16.0403C21.6501 16.1512 21.9562 16.2847 22.1122 16.3378C22.2681 16.3903 23.3527 16.6289 24.5218 16.8681C26.4626 17.2647 26.6877 17.3225 27.1016 17.5354C27.351 17.6637 27.6924 17.8947 27.8602 18.0487C28.0286 18.2027 28.2849 18.5125 28.4306 18.737C28.5763 18.9616 28.7572 19.3029 28.8314 19.4954C28.9562 19.8162 28.9692 19.9468 28.9907 21.0703C29.0117 22.1343 29.0015 22.3373 28.9131 22.6161C28.8456 22.8279 28.7231 23.032 28.5519 23.2175C28.3812 23.4013 28.1902 23.5366 27.9946 23.6113C27.7638 23.6988 27.5506 23.7244 26.3929 23.7244L26.3362 23.9869C26.305 24.1316 26.2114 24.3871 26.1286 24.5557C26.0453 24.7243 25.8605 24.9891 25.7176 25.1448C25.5741 25.3 25.3167 25.5141 25.1455 25.6203C24.9743 25.7264 24.6931 25.8553 24.5218 25.9067C24.3506 25.9586 24.0251 26.0006 23.7989 26C23.5727 25.9994 23.241 25.9557 23.0619 25.902C22.8827 25.8483 22.6338 25.7445 22.509 25.6716C22.3843 25.5987 22.1689 25.4394 22.0305 25.3175C21.8922 25.195 21.6801 24.9378 21.5594 24.7453C21.4386 24.5528 21.2963 24.2436 21.1483 23.7221L7.73926 23.7244L7.67802 24.0015C7.64457 24.1538 7.53628 24.4338 7.43706 24.6228C7.3384 24.8123 7.12919 25.0877 6.9727 25.2353C6.81622 25.3828 6.57355 25.5713 6.43407 25.6541C6.29403 25.7363 6.03322 25.8483 5.85405 25.902C5.67489 25.9557 5.34321 25.9994 5.11698 25.9988C4.89076 25.9982 4.59083 25.9627 4.45078 25.9189C4.31074 25.8757 4.06807 25.7737 3.91215 25.6932C3.75623 25.6127 3.50109 25.4283 3.34517 25.2837C3.18925 25.139 2.97267 24.8678 2.86324 24.6805C2.75438 24.4933 2.62398 24.1689 2.57408 23.9595C2.49811 23.6416 2.45558 23.564 2.31667 23.4911C2.22482 23.4433 1.78201 23.2327 1.3324 23.0245C0.845365 22.7987 0.447913 22.5747 0.349259 22.4703C0.257975 22.3741 0.142312 22.2166 0.0918505 22.1203C0.0119065 21.9675 0 21.6583 0 17.4537L0.153084 17.1329C0.237564 16.9567 0.416162 16.6954 0.549969 16.5531C0.684343 16.4107 0.92134 16.2352 1.07726 16.1634C1.23318 16.0911 1.65444 15.9645 2.01277 15.8817C2.37167 15.7983 2.88195 15.6314 3.14673 15.5101C3.41151 15.3893 3.79479 15.1753 3.9972 15.0347C4.20018 14.8935 4.59536 14.5663 4.87602 14.3067C5.15667 14.0477 5.56489 13.7129 5.78318 13.5635C6.00147 13.4142 6.37171 13.199 6.6053 13.0858C6.83946 12.9721 7.24712 12.8157 7.51247 12.7376C7.77781 12.66 8.25577 12.5666 8.57555 12.5311C8.89533 12.4955 9.82007 12.4663 12.105 12.4663L12.1073 9.2872L11.8935 9.18921C11.7761 9.13554 11.5692 8.97804 11.4343 8.83921C11.2993 8.70096 11.1219 8.44314 11.0396 8.26639C10.916 8.00098 10.886 7.83998 10.8401 6.72058L11.2778 5.5831C11.5794 4.80087 11.7682 4.39079 11.8827 4.27062C12.0438 4.10204 12.0727 4.09446 12.6867 4.06296C13.0371 4.0443 15.4672 4.02505 18.0866 4.01921ZM28.2163 0.0123657L28.5474 0.391526L28.5479 1.42692C28.5479 2.32233 28.5349 2.48157 28.4487 2.60465C28.3937 2.68282 28.2661 2.7814 28.1647 2.8234C28.0632 2.8654 27.8591 2.89982 27.4418 2.89982V16.0794L27.3176 16.2077C27.2479 16.2795 27.1174 16.3378 27.0211 16.3407C26.9133 16.3437 26.8016 16.2958 26.5913 16.08L26.576 10.8167C26.5681 7.92223 26.5618 4.95661 26.5629 2.89982L10.4324 2.89923L10.387 4.75187C10.3627 5.77035 10.3474 7.58857 10.3542 8.79138C10.3632 10.3681 10.3479 11.0156 10.3003 11.1101C10.264 11.1824 10.1637 11.2571 10.078 11.2769C9.99243 11.2962 9.86486 11.2962 9.79455 11.2769C9.71801 11.2553 9.6307 11.1538 9.57627 11.0226C9.51447 10.8738 9.49065 10.6732 9.50199 10.3955C9.51107 10.1709 9.5139 8.39239 9.49689 2.89982L9.13346 2.88523C8.83409 2.87298 8.74281 2.8444 8.62034 2.72482C8.53813 2.6449 8.44401 2.47399 8.41056 2.34566C8.37314 2.20216 8.36123 1.78683 8.37994 1.26651C8.40546 0.549606 8.42644 0.398526 8.51942 0.274861C8.57952 0.194946 8.69008 0.0963642 8.76549 0.0566982C8.87265 -0.000467465 10.9642 -0.0127172 28.2163 0.0123657ZM11.7081 7.42057C11.7081 7.56465 11.7353 7.7554 11.7682 7.84348C11.8017 7.93156 11.8975 8.07856 11.9808 8.16956C12.0647 8.26056 12.2036 8.37197 12.2893 8.41747C12.3749 8.46297 12.5665 8.49913 12.7145 8.49797C12.8772 8.4968 13.0621 8.44955 13.1823 8.37897C13.2917 8.31422 13.4448 8.16606 13.5224 8.04881C13.6268 7.89248 13.6682 7.74665 13.6784 7.49698L13.6925 7.15807H11.7081V7.42057ZM14.543 7.42057C14.543 7.56465 14.5782 7.76823 14.6212 7.87264C14.6638 7.97706 14.7726 8.13281 14.8622 8.21914C14.9518 8.30489 15.0952 8.40347 15.1809 8.43789C15.2665 8.47172 15.4326 8.5003 15.5494 8.50088C15.6662 8.50147 15.8743 8.44255 16.0115 8.36964C16.1884 8.27572 16.3006 8.16081 16.3959 7.97473C16.4832 7.80381 16.5297 7.61598 16.5286 7.43515L16.5274 7.15807H14.543V7.42057ZM17.3779 7.42057C17.3779 7.56465 17.413 7.76823 17.4561 7.87264C17.4987 7.97706 17.6075 8.13281 17.6971 8.21914C17.7867 8.30489 17.9301 8.40347 18.0157 8.43789C18.1014 8.47172 18.2675 8.49913 18.3843 8.49913C18.5011 8.49855 18.699 8.44605 18.8237 8.38305C18.9484 8.32005 19.1145 8.17072 19.1922 8.05231C19.296 7.89423 19.3379 7.74548 19.3481 7.49698L19.3623 7.15807H17.3779V7.42057ZM20.2128 7.42057C20.2128 7.56465 20.2479 7.76823 20.291 7.87264C20.3336 7.97706 20.4424 8.13281 20.532 8.21914C20.6216 8.30489 20.765 8.40347 20.8506 8.43789C20.9362 8.47172 21.1024 8.49913 21.2192 8.49913C21.336 8.49855 21.5338 8.44605 21.6586 8.38305C21.7833 8.32005 21.9494 8.17072 22.0271 8.05231C22.1309 7.89423 22.1728 7.74548 22.183 7.49698L22.1972 7.15807H20.2128V7.42057ZM23.0477 7.42057C23.0477 7.56465 23.0828 7.76823 23.1259 7.87264C23.1684 7.97706 23.2773 8.13281 23.3669 8.21914C23.4565 8.30489 23.5999 8.40347 23.6855 8.43789C23.7711 8.47172 23.9435 8.49972 24.0682 8.49972C24.193 8.49972 24.3653 8.46297 24.451 8.41747C24.5366 8.37197 24.6755 8.26056 24.7594 8.16956C24.8427 8.07856 24.9386 7.93156 24.972 7.84348C25.0049 7.7554 25.0321 7.56465 25.0321 7.42057V7.15807H23.0477V7.42057ZM13.2531 9.28487L12.9555 9.3747L12.9549 12.4371C14.6031 12.5042 15.1837 12.5497 15.3084 12.5812C15.4462 12.6162 17.1772 12.639 19.7167 12.6401C23.842 12.6413 23.8987 12.6396 23.9548 12.5246C23.9883 12.4558 24.0115 11.7856 24.0115 10.8913V9.3747C23.8137 9.37645 23.6288 9.3362 23.4729 9.28604C23.317 9.23645 23.0619 9.09062 22.9059 8.96229C22.6644 8.76396 22.6088 8.74063 22.5295 8.80421C22.4784 8.84504 22.3509 8.94713 22.246 9.03054C22.1411 9.11396 21.9472 9.22537 21.8145 9.27845C21.6818 9.33154 21.4142 9.3747 21.2192 9.3747C21.0236 9.37529 20.7401 9.3292 20.5876 9.27262C20.4345 9.21662 20.1986 9.07196 20.0631 8.95179L19.8159 8.73305C19.3544 9.08946 19.106 9.2347 18.9654 9.28545C18.8254 9.33562 18.551 9.37645 18.3559 9.37587C18.1008 9.37529 17.9103 9.3327 17.6756 9.22595C17.4964 9.14371 17.2679 8.99321 17.1675 8.89054L16.9855 8.70388C16.5206 9.08304 16.2712 9.2347 16.1305 9.28545C15.9905 9.33562 15.7223 9.37587 15.5352 9.3747C15.3481 9.37295 15.0709 9.32687 14.9189 9.27145C14.767 9.21604 14.5305 9.07196 14.3945 8.95179C14.2578 8.83163 14.1399 8.73538 14.1319 8.73771C14.124 8.74063 13.9902 8.84446 13.8343 8.96871C13.6784 9.09354 13.417 9.23529 13.2531 9.28487ZM8.24954 13.4638C8.04713 13.4976 7.72792 13.5799 7.54081 13.6458C7.35371 13.7117 7.03507 13.8488 6.83209 13.9503C6.62968 14.0518 6.34903 14.2151 6.20842 14.3131C6.06837 14.4111 5.67262 14.7471 5.3296 15.0604C4.98658 15.373 4.52732 15.7434 4.30904 15.8834C4.09075 16.0234 3.70804 16.2264 3.45857 16.3343C3.2091 16.4422 2.80087 16.5857 2.5514 16.6528C2.30193 16.7199 1.95097 16.8027 1.77181 16.8372C1.53935 16.8815 1.38626 16.9538 1.23828 17.0891C1.12375 17.1936 0.984275 17.3837 0.927577 17.5121C0.856705 17.6719 0.824387 17.8877 0.823253 18.1975L0.822119 18.6495C1.60455 18.6495 1.77634 18.6775 1.90051 18.7516C1.99463 18.8076 2.10916 18.9389 2.15565 19.0433C2.21462 19.1774 2.23957 19.4382 2.23957 19.9328C2.23957 20.4252 2.21462 20.6935 2.15452 20.837C2.10803 20.9496 1.99917 21.0867 1.91355 21.1421C1.8132 21.2068 1.59151 21.2535 1.28931 21.2733L0.821552 21.3037C0.820418 21.6204 0.852736 21.7563 0.891857 21.8106C0.931546 21.8642 1.31482 22.0678 1.74346 22.2626C2.17209 22.4569 2.53609 22.6161 2.5514 22.6161C2.56728 22.6161 2.57919 22.5835 2.57805 22.5432C2.57748 22.503 2.66423 22.2866 2.77139 22.062C2.90577 21.7797 3.06849 21.5568 3.29698 21.3398C3.47955 21.1672 3.75623 20.9607 3.91215 20.8802C4.06807 20.7997 4.31074 20.6982 4.45078 20.655C4.59139 20.6113 4.89076 20.5757 5.11698 20.5751C5.34321 20.5745 5.67489 20.6183 5.85405 20.6719C6.03322 20.7256 6.29403 20.8376 6.43407 20.9198C6.57355 21.0027 6.81622 21.1911 6.9727 21.3387C7.12919 21.4862 7.3384 21.7616 7.43706 21.9511C7.53628 22.1401 7.64457 22.4201 7.67802 22.5724L7.73926 22.8495L21.1483 22.8518C21.2963 22.3303 21.4386 22.0211 21.5594 21.8286C21.6801 21.6362 21.8922 21.3789 22.0305 21.2564C22.1689 21.1345 22.3843 20.9752 22.509 20.9023C22.6338 20.8294 22.8827 20.7256 23.0619 20.6719C23.241 20.6183 23.5727 20.5745 23.7989 20.5751C24.032 20.5751 24.3574 20.6212 24.5502 20.6813C24.7373 20.7396 25.031 20.8796 25.2022 20.9927C25.374 21.1053 25.6223 21.32 25.755 21.4693C25.8877 21.6187 26.06 21.8724 26.1377 22.0328C26.216 22.1932 26.305 22.4423 26.3362 22.587L26.3929 22.8495C27.4038 22.8495 27.6345 22.8232 27.7536 22.762C27.8472 22.7141 27.9747 22.5893 28.0371 22.4849C28.1272 22.3332 28.1499 22.1926 28.1505 21.7849V21.2745C26.8045 21.2739 26.6792 21.2582 26.5204 21.1578C26.4189 21.0937 26.2982 20.9496 26.2511 20.837C26.1989 20.7116 26.1672 20.4584 26.1683 20.1808C26.17 19.9323 26.2018 19.6359 26.2392 19.5228C26.2772 19.4096 26.373 19.2259 26.4535 19.1144C26.5335 19.003 26.7313 18.8397 26.8929 18.7516L27.1866 18.5912C26.8351 18.3649 26.6503 18.2634 26.5488 18.2196C26.4473 18.1753 25.446 17.9507 24.3234 17.7191C23.2008 17.4881 22.1422 17.2589 21.9704 17.2093C21.7992 17.1603 21.429 17.0075 21.1483 16.871C20.8676 16.7339 19.7836 16.0328 18.7386 15.3135C17.5327 14.4823 16.6839 13.9386 16.414 13.8225C16.1804 13.7222 15.8357 13.5991 15.6486 13.5484C15.4615 13.4976 15.0918 13.4305 14.8265 13.399C14.5617 13.3681 13.1329 13.346 11.6514 13.3506C10.1705 13.3553 8.88172 13.3681 8.78817 13.3804C8.69462 13.392 8.45252 13.4294 8.24954 13.4638ZM27.0874 19.7269C27.0483 19.808 27.0165 19.9923 27.0165 20.137V20.3995L28.1788 20.4018C28.1091 20.0157 28.045 19.8121 27.9917 19.6995C27.9073 19.521 27.867 19.4942 27.6686 19.4843C27.5438 19.4779 27.3783 19.4965 27.3 19.5257C27.2223 19.5554 27.1265 19.6459 27.0874 19.7269ZM0.822119 20.3995H1.3891V19.5245H0.822119V20.3995ZM3.95468 21.8887C3.79649 22.0217 3.65077 22.2259 3.53001 22.4849C3.37692 22.8133 3.34631 22.9463 3.34631 23.287C3.34631 23.6276 3.37692 23.7606 3.53001 24.089C3.65361 24.3539 3.79252 24.5475 3.95468 24.6799C4.08735 24.7878 4.28522 24.9255 4.39408 24.9862C4.5483 25.0708 4.71273 25.0953 5.13116 25.0953C5.5802 25.0947 5.71004 25.0731 5.91075 24.964C6.04342 24.8917 6.25604 24.7342 6.38304 24.614C6.51061 24.4939 6.68298 24.2506 6.76576 24.0744C6.89162 23.8073 6.916 23.676 6.9143 23.287C6.9126 22.9317 6.88255 22.7544 6.7873 22.5432C6.71813 22.391 6.54066 22.1396 6.39268 21.985C6.21465 21.7989 6.01337 21.6607 5.79736 21.5767C5.5836 21.4932 5.34888 21.4507 5.11698 21.4524C4.9021 21.4542 4.65093 21.5008 4.47913 21.5708C4.32321 21.6344 4.08735 21.7779 3.95468 21.8887ZM22.6791 21.8351C22.5544 21.9336 22.3724 22.1431 22.2755 22.3006C22.1779 22.4581 22.0668 22.7445 22.0288 22.937C21.9733 23.2135 21.9733 23.3605 22.0283 23.637C22.0679 23.8359 22.1808 24.1194 22.2896 24.2932C22.3945 24.4618 22.5635 24.6642 22.665 24.7435C22.7665 24.8228 22.983 24.9407 23.1469 25.006C23.3272 25.0778 23.5784 25.1244 23.7848 25.1244C23.9826 25.1244 24.2497 25.0766 24.4226 25.0107C24.5865 24.9483 24.8439 24.7843 24.9952 24.6461C25.154 24.5009 25.3332 24.2599 25.4199 24.0744C25.5441 23.8096 25.5702 23.6719 25.5702 23.287C25.5702 22.902 25.5441 22.7643 25.4199 22.4995C25.3332 22.314 25.154 22.0731 24.9952 21.9278C24.8439 21.7896 24.5865 21.6257 24.4226 21.5632C24.2395 21.4932 23.9883 21.4507 23.7706 21.4524C23.5755 21.4536 23.3017 21.5002 23.1611 21.5557C23.021 21.6111 22.8039 21.7365 22.6791 21.8351ZM12.4367 4.97061C12.092 5.82926 11.9791 6.12501 11.9632 6.18101C11.9366 6.27784 12.2683 6.28309 18.3701 6.28309C21.9098 6.28309 24.8053 6.27026 24.8053 6.25392C24.8053 6.23759 24.7016 5.95584 24.574 5.62685C24.447 5.29786 24.3256 5.01028 24.3047 4.98695C24.2837 4.96361 21.7153 4.93736 18.5969 4.92861C15.4785 4.91986 12.8166 4.92511 12.6822 4.94145L12.4367 4.97061ZM9.26953 2.02483H27.6963V0.858184H9.26953V2.02483ZM9.92156 13.9579C10.3281 13.9614 10.4642 13.9853 10.5906 14.0745C10.6773 14.1364 10.7737 14.2659 10.8038 14.3621C10.835 14.4613 10.8588 15.3555 10.8582 16.4183C10.8576 17.8026 10.8384 18.3392 10.7862 18.45C10.7476 18.5329 10.6518 18.6443 10.5736 18.698C10.4483 18.7843 10.1659 18.7971 8.07888 18.8129C6.53046 18.8245 5.60005 18.8082 5.35738 18.7656C5.15497 18.7295 4.88679 18.6402 4.76205 18.5661C4.63732 18.4926 4.42583 18.3036 4.29203 18.1473C4.15879 17.9904 4.01024 17.7442 3.96261 17.5996C3.90648 17.4304 3.89004 17.2647 3.91612 17.1329C3.93823 17.0203 3.98416 16.8821 4.01874 16.8249C4.05333 16.7672 4.32435 16.5531 4.62031 16.3483C4.91684 16.1442 5.37722 15.7708 5.64427 15.5194C5.91075 15.268 6.28099 14.9583 6.46639 14.8317C6.65179 14.7051 6.98177 14.5173 7.20006 14.414C7.41835 14.3108 7.76307 14.1819 7.96548 14.1276C8.16846 14.0728 8.57668 14.0115 8.87265 13.9911C9.16918 13.9707 9.6409 13.9555 9.92156 13.9579ZM7.93713 15.0592C7.68766 15.1449 7.36902 15.2838 7.22841 15.3666C7.08837 15.4494 6.87178 15.5988 6.74761 15.6979C6.62344 15.7977 6.32975 16.0578 6.09559 16.2772C5.86142 16.4959 5.47248 16.8109 5.23208 16.9771C4.99111 17.1428 4.79267 17.305 4.7904 17.3371C4.7887 17.3691 4.83859 17.4677 4.9021 17.5558C4.9656 17.6439 5.10054 17.7623 5.20146 17.8183C5.36702 17.9099 5.62103 17.9221 7.69617 17.935L10.0066 17.9496V14.8579C9.76507 14.8568 9.64374 14.8469 9.58137 14.8352C9.519 14.8235 9.22588 14.834 8.92935 14.8585C8.59766 14.8854 8.21665 14.9624 7.93713 15.0592ZM13.9896 13.9678C14.556 13.9777 15.0334 14.0174 15.2937 14.0775C15.5199 14.13 15.8901 14.2478 16.1158 14.3399C16.342 14.4327 16.5972 14.5517 16.6828 14.6048C16.769 14.6579 17.7016 15.2943 18.7562 16.0193C20.5944 17.2828 20.6788 17.3493 20.8121 17.6287C20.8881 17.7891 20.9504 17.9927 20.9504 18.0808C20.9499 18.1689 20.9113 18.3264 20.8648 18.4308C20.8183 18.5352 20.7225 18.66 20.6522 18.7079C20.5416 18.7831 19.9531 18.7971 16.3851 18.81C13.7611 18.8193 12.1685 18.803 12.0336 18.7662C11.9014 18.73 11.7852 18.6472 11.7257 18.5475C11.6491 18.4197 11.6259 18.2027 11.61 17.4829C11.5987 16.9859 11.6044 16.0672 11.6225 15.4413C11.6537 14.3347 11.6588 14.2997 11.7949 14.1451C11.9281 13.9952 11.9666 13.9859 12.5161 13.9701C12.8353 13.9608 13.4986 13.9596 13.9896 13.9678ZM12.4826 16.3676C12.4764 17.3487 12.4939 17.914 12.5297 17.9286C12.5608 17.9408 14.2555 17.9437 16.295 17.9356L20.0036 17.9204C17.1556 15.9587 16.1629 15.3118 15.9599 15.2167C15.7575 15.1216 15.4195 15.002 15.2086 14.9507C14.9546 14.8889 14.4353 14.848 13.6642 14.8288C13.0246 14.8124 12.4996 14.806 12.4968 14.8142C12.4945 14.8224 12.4877 15.5212 12.4826 16.3676ZM12.3596 19.7934C12.4531 19.8069 12.7275 19.8174 12.9691 19.8168C13.3535 19.8162 13.4232 19.8325 13.523 19.9474C13.5859 20.0198 13.637 20.151 13.6364 20.2391C13.6358 20.3272 13.5842 20.452 13.5219 20.5162C13.4595 20.5803 13.3132 20.6498 13.1959 20.6696C13.0791 20.69 12.761 20.697 12.4894 20.6842C12.0676 20.6655 11.9763 20.6428 11.8657 20.529C11.7909 20.4526 11.7359 20.3254 11.7359 20.2292C11.7359 20.137 11.7818 20.0081 11.8379 19.9422C11.8941 19.8763 11.9961 19.8109 12.0647 19.7964C12.1333 19.7818 12.266 19.7806 12.3596 19.7934ZM5.10224 21.8619C5.22697 21.859 5.44413 21.8951 5.58417 21.943C5.72478 21.9908 5.93967 22.1285 6.0627 22.2498C6.18517 22.3711 6.33485 22.5881 6.39495 22.7328C6.45505 22.8775 6.50381 23.1265 6.50381 23.287C6.50381 23.4474 6.45505 23.6964 6.39495 23.8411C6.33485 23.9858 6.18517 24.2028 6.0627 24.3247C5.93343 24.4524 5.72025 24.5843 5.55582 24.6385C5.3897 24.6928 5.16744 24.7202 5.01719 24.7044C4.87715 24.6898 4.66113 24.6269 4.5381 24.5656C4.41506 24.5038 4.23816 24.3749 4.14575 24.2786C4.0539 24.1824 3.932 23.9986 3.8753 23.8703C3.81293 23.7279 3.77268 23.5005 3.77268 23.287C3.77268 23.0612 3.81123 22.8541 3.88154 22.7036C3.94163 22.5753 4.02385 22.4301 4.06467 22.3805C4.10549 22.3309 4.22796 22.223 4.33682 22.1401C4.44625 22.0573 4.6118 21.9616 4.70535 21.9284C4.79891 21.8946 4.9775 21.8648 5.10224 21.8619ZM4.71102 22.9766C4.66056 23.0513 4.61974 23.1971 4.62031 23.3015C4.62031 23.434 4.6719 23.5436 4.7904 23.6661C4.9038 23.7828 5.01719 23.8411 5.13059 23.8411C5.23605 23.8411 5.36759 23.7799 5.47588 23.6807C5.61649 23.5518 5.65107 23.4742 5.65107 23.287C5.65107 23.0997 5.61649 23.0221 5.47588 22.8932C5.37949 22.8051 5.24342 22.7346 5.17311 22.7363C5.10337 22.7386 4.99111 22.7631 4.92421 22.7905C4.85674 22.8185 4.76092 22.902 4.71102 22.9766ZM23.7558 21.8619C23.8806 21.859 24.0977 21.8951 24.2378 21.943C24.3784 21.9908 24.5933 22.1285 24.7163 22.2498C24.8388 22.3711 24.9884 22.5881 25.0485 22.7328C25.1086 22.8775 25.1574 23.1265 25.1574 23.287C25.1574 23.4474 25.1086 23.6964 25.0485 23.8411C24.9884 23.9858 24.8388 24.2028 24.7163 24.3247C24.587 24.4524 24.3738 24.5843 24.2094 24.6385C24.0433 24.6928 23.821 24.7202 23.6708 24.7044C23.5307 24.6898 23.3147 24.6269 23.1917 24.5656C23.0687 24.5038 22.8918 24.3749 22.7993 24.2786C22.7075 24.1824 22.5856 23.9986 22.5289 23.8703C22.4665 23.7279 22.4263 23.5005 22.4263 23.287C22.4263 23.0612 22.4648 22.8541 22.5351 22.7036C22.5952 22.5753 22.6774 22.4301 22.7183 22.3805C22.7591 22.3309 22.8816 22.223 22.9904 22.1401C23.0998 22.0573 23.2654 21.9616 23.3589 21.9284C23.4525 21.8946 23.6311 21.8648 23.7558 21.8619ZM23.3646 22.9766C23.3142 23.0513 23.2733 23.1971 23.2739 23.3015C23.2739 23.434 23.3255 23.5436 23.444 23.6661C23.5574 23.7828 23.6708 23.8411 23.7842 23.8411C23.8896 23.8411 24.0212 23.7799 24.1295 23.6807C24.2701 23.5518 24.3047 23.4742 24.3047 23.287C24.3047 23.0997 24.2701 23.0221 24.1295 22.8932C24.0331 22.8051 23.897 22.7346 23.8267 22.7363C23.757 22.7386 23.6447 22.7631 23.5778 22.7905C23.5103 22.8185 23.4145 22.902 23.3646 22.9766Z" fill="black"/>
</svg>
